<?xml version="1.0" standalone="no"?><!DOCTYPE svg PUBLIC "-//W3C//DTD SVG 1.1//EN" "http://www.w3.org/Graphics/SVG/1.1/DTD/svg11.dtd"><svg t="1734612818055" class="icon" viewBox="0 0 1024 1024" version="1.1" xmlns="http://www.w3.org/2000/svg" p-id="15269" xmlns:xlink="http://www.w3.org/1999/xlink" width="200" height="200"><path d="M514.5 778C692.1 778 826 686.7 826 541c0-116-78-228-190.5-236.9-25.2-2-60.8 0.3-106.8 6.8-9.5 1.4-19.1 1.3-28.6 0-40.6-5.9-73-8.9-97.4-8.9C268.6 302 203 422.4 203 541c0 145.7 133.9 237 311.5 237z" fill="#FFA102" p-id="15270"></path><path d="M477.5 776.6C636.3 764.8 752 676.4 752 541c0-115.2-76.9-227.4-188.2-237.7 29.4-4.3 53.3-5.7 71.7-4.2C748 308.1 826 425 826 541c0 145.7-133.9 237-311.5 237-12.6 0-24.9-0.5-37-1.4zM371.9 303.3c9.9-1.5 20.2-2.3 30.9-2.3 19.8 0 44.9 2 75.4 5.9-7.5 0.9-15.3 1.9-23.4 3.1-9.5 1.4-19.1 1.3-28.6 0-20.1-3-38.2-5.2-54.3-6.7z" fill="#F59513" p-id="15271"></path><path d="M562.9 776.6C403.7 764.8 288 676.4 288 541c0-111.6 72.2-219.5 177.4-235.5-24.7-2.2-45.2-2.7-61.4-1.5-112 9.1-190 121-190 237 0 145.7 133.9 237 312 237 12.5 0 24.8-0.5 36.9-1.4z m105.2-472.3c-9.9-1.5-20.3-2.3-31.1-2.3-19.7 0-44.6 1.9-74.9 5.8 7.6 0.9 15.5 1.9 23.7 3.1 9.4 1.3 19 1.3 28.5-0.1 19.9-2.9 37.8-5.1 53.8-6.5z" fill="#FEBB21" p-id="15272"></path><path d="M514.5 766c57.2 0 103.5-90.6 103.5-232.1 0-112.7-18-227.8-64.5-234.9-4.3-0.7-9.6-0.3-15.7 1-15.3 3.3-31.2 2.9-46.3-1.1-4.9-1.3-9.2-1.9-12.9-1.9-48.4 0-67.5 121.8-67.5 236.9C411 675.4 457.3 766 514.5 766z" fill="#FFA102" p-id="15273"></path><path d="M514.5 764c85.4 0 160.5-21.7 214-61.1 54-39.8 83.5-95.7 83.5-161.9 0-54.7-18.3-110-50.3-152.7-33-44.1-77.8-69.3-127.3-73.2-24-1.9-58.6 0.3-103.7 6.7-10.8 1.5-21.8 1.5-32.6-0.1-40-5.8-71.8-8.7-95.4-8.7-58.6 0-105.8 23.6-138.9 69.7C233.6 424.9 217 482.3 217 541c0 66.2 29.5 122.1 83.5 161.9 53.5 39.4 128.6 61.1 214 61.1z m0 14C336.9 778 203 686.7 203 541c0-118.6 65.6-242 199.8-242 24.3 0 56.8 3 97.4 8.9 9.5 1.4 19.1 1.4 28.6 0 46-6.6 81.6-8.8 106.8-6.8C748 310.1 826 425 826 541c0 145.7-133.9 237-311.5 237z" fill="#1E1C1E" p-id="15274"></path><path d="M377 743l15.2 41.5c2.5 6.7 9.9 10.2 16.7 7.7 2.9-1.1 5.3-3.1 6.9-5.9L440 743" fill="#FEBB21" p-id="15275"></path><path d="M650 743l-15.2 41.5c-2.5 6.7-9.9 10.2-16.7 7.7-2.9-1.1-5.3-3.1-6.9-5.9L587 743" fill="#F59513" p-id="15276"></path><path d="M370.4 745.4c-1.3-3.6 0.5-7.7 4.2-9 3.6-1.3 7.7 0.5 9 4.2l15.2 41.5c1.1 3.1 4.6 4.7 7.7 3.6 1.3-0.5 2.5-1.5 3.2-2.7l24.2-43.3c1.9-3.4 6.2-4.6 9.5-2.7 3.4 1.9 4.6 6.2 2.7 9.5l-24.2 43.3c-2.3 4.2-6.1 7.4-10.6 9-10.4 3.8-21.9-1.5-25.7-11.9l-15.2-41.5zM656.6 745.4c1.3-3.6-0.5-7.7-4.2-9-3.6-1.3-7.7 0.5-9 4.2L628.2 782c-1.1 3.1-4.6 4.7-7.7 3.6-1.3-0.5-2.5-1.5-3.2-2.7l-24.2-43.3c-1.9-3.4-6.2-4.6-9.5-2.7-3.4 1.9-4.6 6.2-2.7 9.5l24.2 43.3c2.3 4.2 6.1 7.4 10.6 9 10.4 3.8 21.9-1.5 25.7-11.9l15.2-41.4z" fill="#1E1C1E" p-id="15277"></path><path d="M514 766c164 0 238-90.6 238-232.1 0-112.7-41.3-226.8-148.4-233.9-17.5-1.2-41.7 0.8-72.6 5.7-11.3 1.8-22.8 1.7-34-0.4-27.1-5-49-7.4-65.7-7.4C320 298 276 418.8 276 533.9 276 675.4 350 766 514 766z" fill="#FFA102" p-id="15278"></path><path d="M272.7 397.9a7 7 0 0 1 9.9-0.9 7 7 0 0 1 0.9 9.9c-7.2 8.6-13.8 22.8-19.7 42.6-1.1 3.7-5 5.8-8.7 4.7-3.7-1.1-5.8-5-4.7-8.7 6.3-21.5 13.7-37.3 22.3-47.6zM254.8 476.7c-0.2 0.5-0.5 1.3-0.8 2.3-0.7 2.2-1.5 5.4-2.5 9.6-0.9 3.8-4.7 6.1-8.5 5.2-3.8-0.9-6.1-4.7-5.2-8.5 2.5-10.4 3.8-14.8 5.6-17 2.4-3 6.9-3.4 9.8-1 2.8 2.3 3.4 6.2 1.5 9.2 0.2 0.1 0.1 0.2 0.1 0.2z" fill="#FFFFFF" p-id="15279"></path><path d="M514 752c149.3 0 224-77.2 224-218.1 0-57.7-11.1-111.1-32.4-150.3-23.3-43-57.6-67.5-103-70.6-16.3-1.1-39.5 0.8-69.4 5.6-12.8 2.1-25.9 1.9-38.7-0.4-26.3-4.8-47.5-7.2-63.2-7.2-46.9 0-82.6 23.9-107.2 68.1-22.4 40.2-34.1 95.7-34.1 154.8C290 674.8 364.7 752 514 752z m0 14c-164 0-238-90.6-238-232.1C276 418.8 320 297 431.3 297c16.7 0 38.6 2.5 65.7 7.4 11.2 2.1 22.7 2.2 34 0.4 30.9-5 55.1-6.9 72.6-5.7C710.7 306.2 752 421.3 752 533.9 752 675.4 678 766 514 766z" fill="#E97712" p-id="15280"></path><path d="M514.5 752c22 0 43.7-18.8 60.5-54.9 18.5-39.9 29-96.8 29-163.2 0-58.9-4.9-113.5-14.4-153.8-9.9-41.9-24-65-38.2-67.2-2.5-0.4-6.1-0.1-10.7 0.8-17.5 3.7-35.6 3.3-52.8-1.3-3.8-1-6.9-1.5-9.3-1.5-13.7 0-28 22-38.3 64.6-10 41.3-15.2 98.1-15.2 158.4 0 66.4 10.5 123.3 29 163.2 16.7 36.1 38.4 54.9 60.4 54.9z m0 14C457.3 766 411 675.4 411 533.9c0-115.2 19.1-236.9 67.5-236.9 3.7 0 8 0.6 12.9 1.9 15.1 4 31 4.4 46.3 1.1 6.2-1.3 11.4-1.6 15.7-1C600 306.2 618 421.3 618 533.9 618 675.4 571.7 766 514.5 766z" fill="#E97712" p-id="15281"></path><path d="M434.9 307c-0.3-1.6-0.5-3.2-0.7-4.9 45.5-97.5 68.2-127.7 68.2-90.4 0 25.2 13 48.6 39.1 70.3 0.1 0 0.1 0.1 0.2 0.1 15.9-1 31.4 0.2 46.1 4.9 47.1 14.8 82.7 29.4 106.7 43.7-1 3.3-11.7 5-32.3 5-132.7-23-86.5 42.7-272.5 36.2-57.5-8.2-69.2-24.9-35.1-50.1 3.3-2.5 7.5-3.4 11.6-2.7 5.3 0.9 18.6-0.7 40-4.9 8.9-1.8 18.6-4.3 28.7-7.2z" fill="#E97712" p-id="15282"></path><path d="M350 396a19.5 15 0 1 0 39 0 19.5 15 0 1 0-39 0Z" fill="#E55D7E" p-id="15283"></path><path d="M640 396a19.5 15 0 1 0 39 0 19.5 15 0 1 0-39 0Z" fill="#E55D7E" p-id="15284"></path><path d="M463 371m-40 0a40 40 0 1 0 80 0 40 40 0 1 0-80 0Z" fill="#FFFFFF" p-id="15285"></path><path d="M432.4 395.9c3.9 2 8.3 3.1 13 3.1 15.7 0 28.5-12.8 28.5-28.5S461.2 342 445.4 342c-5.3 0-10.2 1.4-14.4 3.9 7.3-9.7 18.9-15.9 31.9-15.9 22.1 0 40 17.9 40 40s-17.9 40-40 40c-12.2 0-23.1-5.5-30.5-14.1z" fill="#E2DCCC" p-id="15286"></path><path d="M463 381c-5.5 0-10-4.5-10-10s4.5-10 10-10 10 4.5 10 10-4.5 10-10 10z" fill="#1E1C1E" p-id="15287"></path><path d="M463 397c14.4 0 26-11.6 26-26s-11.6-26-26-26-26 11.6-26 26 11.6 26 26 26z m0 14c-22.1 0-40-17.9-40-40s17.9-40 40-40 40 17.9 40 40-17.9 40-40 40z" fill="#1E1C1E" p-id="15288"></path><path d="M566 371m-40 0a40 40 0 1 0 80 0 40 40 0 1 0-80 0Z" fill="#FFFFFF" p-id="15289"></path><path d="M535.4 396.9c3.9 2 8.3 3.1 13 3.1 15.7 0 28.5-12.8 28.5-28.5S564.2 343 548.4 343c-5.3 0-10.2 1.4-14.4 3.9 7.3-9.7 18.9-15.9 31.9-15.9 22.1 0 40 17.9 40 40s-17.9 40-40 40c-12.2 0-23.1-5.5-30.5-14.1z" fill="#E2DCCC" p-id="15290"></path><path d="M566 381c-5.5 0-10-4.5-10-10s4.5-10 10-10 10 4.5 10 10-4.5 10-10 10z" fill="#1E1C1E" p-id="15291"></path><path d="M566 397c14.4 0 26-11.6 26-26s-11.6-26-26-26-26 11.6-26 26 11.6 26 26 26z m0 14c-22.1 0-40-17.9-40-40s17.9-40 40-40 40 17.9 40 40-17.9 40-40 40z" fill="#1E1C1E" p-id="15292"></path><path d="M436.2 291.4c-0.4-2-0.8-4.2-1-6.5-4.3-97.5 23.4-154.2 83.1-170 8 0 14.5 6.5 14.5 14.5 0 4.4-2 8.6-5.5 11.4-16 12.8-24 30.6-24 53.6 0 23.5 13.1 45.5 39.2 65.9 0.8 0.6 1.6 1.3 2.3 1.9 21.4-3.7 43.2-4.5 66.7 0.3 40.8 8.4 74.1 12.3 99.9 11.6 9.9-0.3 18.2 7.6 18.5 17.5 0.2 6.9-3.6 13.3-9.7 16.4-13 6.8-28.2 10.2-45.6 10.2-132.7-23-98.1 42.7-284.1 36.2-46.7-5.7-76.7-17.6-89.8-35.7-4.9-6.7-3.4-16.1 3.4-20.9 3.7-2.7 8.4-3.5 12.7-2.3 22.9 6.3 52.9 6.7 90.1 1.2 10.2-1.1 19.9-3.1 29.3-5.3z" fill="#794428" p-id="15293"></path><path d="M473.9 307c0.5 2.2 1.1 4.3 1.8 6.3-9.1 3.3-18.5 6.4-28.3 9.1-36.2 9.9-66.1 13.2-89.6 9.7-4.5-0.7-9 0.8-12.4 3.9-2.5 2.3-4 5.3-4.6 8.4-19.1-6.3-32.4-14.8-40.1-25.3-4.9-6.7-3.4-16.1 3.4-20.9 3.7-2.7 8.4-3.5 12.7-2.3 22.9 6.3 52.9 6.7 90.1 1.2 10.1-1.5 19.8-3.4 29.2-5.6-0.4-2-0.8-4.2-1-6.5-4.3-97.5 23.4-154.2 83.1-170 8 0 14.4 6.4 14.5 14.3-55 23.8-74.7 83-58.8 177.7z" fill="#C97A50" p-id="15294"></path><path d="M518.4 115c8 0 14.5 6.5 14.5 14.5 0 4.4-2 8.6-5.5 11.4-16 12.8-24 30.6-24 53.6 0 23.5 13.1 45.5 39.2 65.9 0.8 0.6 1.6 1.3 2.3 1.9 21.4-3.7 43.2-4.5 66.7 0.3 40.8 8.4 74.1 12.3 99.9 11.6 9.9-0.3 18.2 7.6 18.5 17.5 0.2 6.9-3.6 13.3-9.7 16.4-9.4 4.9-19.8 8-31.4 9.4-0.9-9.3-8.9-16.4-18.4-16.2-25.8 0.7-54.1-2.2-94.9-10.6-23.4-4.8-38.2-5-59.7-1.3-0.7-0.7-1.5-1.3-2.3-1.9-26.1-20.4-39.2-42.4-39.2-65.9 0-23-4-40.8 12-53.6 3.5-2.8 5.5-6.9 5.5-11.4 0-8-6.5-14.5-14.5-14.5-2.8 0.8-5.6 1.6-8.3 2.5 12.8-14.4 29.3-24.3 49.3-29.6z" fill="#572B14" p-id="15295"></path><path d="M512.3 227c1.2 2.2 2.6 4.3 4 6.4-0.2 0.7-0.7 1.4-1.2 2l-4.1 4c-1.9 1.8-2.7 4.5-2.3 7.1l1 5.6c0.5 2.7-1.3 5.2-4 5.7-1.1 0.2-2.2 0-3.1-0.5l-5.1-2.7c-2.3-1.2-5.1-1.2-7.4 0l-5.1 2.7c-2.4 1.3-5.4 0.3-6.6-2.1-0.5-1-0.7-2-0.5-3.1l1-5.6c0.4-2.6-0.4-5.2-2.3-7.1l-4.1-4c-1.9-1.9-2-5-0.1-6.9 0.8-0.8 1.7-1.3 2.8-1.4l5.7-0.8c2.6-0.4 4.9-2 6-4.4l2.5-5.1c1.2-2.4 4.1-3.4 6.6-2.2 1 0.5 1.7 1.3 2.2 2.2l2.5 5.1c1.2 2.4 3.4 4 6 4.4l5.6 0.7z m-78.2 64.8l2.1-0.4c-0.2-0.8-0.3-1.5-0.4-2.3 0.7-0.6 1.5-0.9 2.4-1.1l5.7-0.8c2.6-0.4 4.9-2 6-4.4l2.5-5.1c1.2-2.4 4.1-3.4 6.6-2.2 1 0.5 1.7 1.3 2.2 2.2l2.5 5.1c1.2 2.4 3.4 4 6 4.4l5.7 0.8c2.7 0.4 4.5 2.9 4.1 5.6-0.2 1.1-0.7 2.1-1.4 2.8l-4.1 4c-1.9 1.8-2.7 4.5-2.3 7.1l1 5.6c0.5 2.7-1.3 5.2-4 5.7-1.1 0.2-2.2 0-3.1-0.5l-5.1-2.7c-2.3-1.2-5.1-1.2-7.4 0l-5.1 2.7c-2.4 1.3-5.4 0.3-6.6-2.1-0.5-1-0.7-2-0.5-3.1l1-5.6c0.4-2.6-0.4-5.2-2.3-7.1l-4.1-4c-1.3-1.2-1.7-3-1.4-4.6z m-90.9 53.3c-0.2-0.3-0.4-0.5-0.7-0.7l-4.1-4c-1.9-1.9-2-5-0.1-6.9 0.8-0.8 1.7-1.3 2.8-1.4l5.7-0.8c2.6-0.4 4.9-2 6-4.4l2.5-5.1c1.2-2.4 4.1-3.4 6.6-2.2 1 0.5 1.7 1.3 2.2 2.2l2.5 5.1c1.2 2.4 3.4 4 6 4.4l5.7 0.8c2.7 0.4 4.5 2.9 4.1 5.6-0.2 1.1-0.7 2.1-1.4 2.8l-4.1 4c-1.9 1.8-2.7 4.5-2.3 7.1l0.2 1c-11.7-2.1-22.3-4.5-31.6-7.5z m253.1-84.8c5 0.5 10.1 1.3 15.3 2.4 7.2 1.5 14.2 2.8 20.9 4-0.2 1-0.7 1.9-1.4 2.6l-4.1 4c-1.9 1.8-2.7 4.5-2.3 7.1l1 5.6c0.5 2.7-1.3 5.2-4 5.7-1.1 0.2-2.2 0-3.1-0.5l-5.1-2.7c-2.3-1.2-5.1-1.2-7.4 0l-5.1 2.7c-2.4 1.3-5.4 0.3-6.6-2.1-0.5-1-0.7-2-0.5-3.1l1-5.6c0.4-2.6-0.4-5.2-2.3-7.1l-4.1-4c-1.9-1.9-2-5-0.1-6.9 0.8-0.8 1.7-1.3 2.8-1.4l5.1-0.7z m-147.5-82.1c5.5-13.6 12.6-25.2 21.2-34.7l1.6 3.3c1.2 2.4 3.4 4 6 4.4l5.7 0.8c2.7 0.4 4.5 2.9 4.1 5.6-0.2 1.1-0.7 2.1-1.4 2.8l-4.1 4c-1.9 1.8-2.7 4.5-2.3 7.1l1 5.6c0.5 2.7-1.3 5.2-4 5.7-1.1 0.2-2.2 0-3.1-0.5l-5.1-2.7c-2.3-1.2-5.1-1.2-7.4 0l-5.1 2.7c-2.4 1.3-5.4 0.3-6.6-2.1-0.2-0.6-0.4-1.3-0.5-2z m84.3 149.4l-5.1 2.7c-2.4 1.3-5.4 0.3-6.6-2.1-0.5-1-0.7-2-0.5-3.1l1-5.6c0.4-2.6-0.4-5.2-2.3-7.1l-4.1-4c-1.9-1.9-2-5-0.1-6.9 0.8-0.8 1.7-1.3 2.8-1.4l5.7-0.8c2.6-0.4 4.9-2 6-4.4l2.5-5.1c1.2-2.4 4.1-3.4 6.6-2.2 1 0.5 1.7 1.3 2.2 2.2l2.5 5.1c1.2 2.4 3.4 4 6 4.4l5.7 0.8c2.7 0.4 4.5 2.9 4.1 5.6-0.2 1.1-0.7 2.1-1.4 2.8l-4.1 4c-1.9 1.8-2.7 4.5-2.3 7.1l1 5.6c0.5 2.7-1.3 5.2-4 5.7-1.1 0.2-2.2 0-3.1-0.5l-5.1-2.7c-2.3-1.3-5.1-1.3-7.4-0.1z" fill="#F9D752" p-id="15296"></path><path d="M436.2 291.4c-0.2-0.8-0.3-1.5-0.4-2.3 0.7-0.6 1.5-0.9 2.4-1.1l5.7-0.8c2.6-0.4 4.9-2 6-4.4l2.5-5.1c1.2-2.4 4.1-3.4 6.6-2.2 1 0.5 1.7 1.3 2.2 2.2l2.5 5.1c1.2 2.4 3.4 4 6 4.4l5.7 0.8c2.7 0.4 4.5 2.9 4.1 5.6-0.2 1.1-0.7 2.1-1.4 2.8l-4.1 4c-1.9 1.8-2.7 4.5-2.3 7.1l1 5.6c0.5 2.7-1.3 5.2-4 5.7-1.1 0.2-2.2 0-3.1-0.5l-5.1-2.7c-2.3-1.2-5.1-1.2-7.4 0l-5.1 2.7c-2.4 1.3-5.4 0.3-6.6-2.1-0.5-1-0.7-2-0.5-3.1l1-5.6c0.4-2.6-0.4-5.2-2.3-7.1l-4.1-4c-1.3-1.2-1.7-3-1.4-4.6l2.1-0.4z m-93.6 53l-4.1-4c-1.9-1.9-2-5-0.1-6.9 0.8-0.8 1.7-1.3 2.8-1.4l5.7-0.8c2.6-0.4 4.9-2 6-4.4l2.5-5.1c1.2-2.4 4.1-3.4 6.6-2.2 1 0.5 1.7 1.3 2.2 2.2l2.5 5.1c1.2 2.4 3.4 4 6 4.4l5.7 0.8c2.7 0.4 4.5 2.9 4.1 5.6-0.2 1.1-0.7 2.1-1.4 2.8l-4.1 4c-1.9 1.8-2.7 4.5-2.3 7.1l0.2 1c-11.8-2-22.4-4.4-31.7-7.3-0.2-0.4-0.4-0.7-0.6-0.9z m106.2-166.2c5.5-13.6 12.6-25.2 21.2-34.7l1.6 3.3c1.2 2.4 3.4 4 6 4.4l5.7 0.8c2.7 0.4 4.5 2.9 4.1 5.6-0.2 1.1-0.7 2.1-1.4 2.8l-4.1 4c-1.9 1.8-2.7 4.5-2.3 7.1l1 5.6c0.5 2.7-1.3 5.2-4 5.7-1.1 0.2-2.2 0-3.1-0.5l-5.1-2.7c-2.3-1.2-5.1-1.2-7.4 0l-5.1 2.7c-2.4 1.3-5.4 0.3-6.6-2.1-0.2-0.6-0.4-1.3-0.5-2z" fill="#FBE48B" p-id="15297"></path><path d="M484.6 336.2c19.8-3.3 35.2-7.8 53.1-14.8 3.8-1.5 18.6-7.6 22.5-9 16.9-6.6 30.3-10.2 46.8-11.8 19.1-1.9 41.2-0.7 69 4 14.7-0.1 27.3-3 37.9-8.6 1.4-0.7 2.2-2.1 2.1-3.7-0.1-2.2-1.9-4-4.1-3.9-27 0.7-61.4-3.3-103.1-11.9-19.9-4.1-39.5-4-61.4-0.2l-6.9 1.2-5.1-4.8c-0.4-0.4-0.9-0.8-1.3-1.1-29.3-22.9-44.6-48.6-44.6-77 0-27.1 9.8-49 29.3-64.5-49.8 14.3-73.4 64.4-69.5 154 0.2 1.6 0.4 3.1 0.7 4.5l2.9 13.5-13.4 3.1c-10.4 2.4-20.4 4.4-30.3 5.8-38.9 5.7-70.8 5.2-95.8-1.6-1.3 0.5-1.4 1.1-1.1 1.6 10.2 14.1 36.7 24.6 79.5 29.9 37.6 1.1 67.8-0.5 92.8-4.7z m-48.4-44.8c-0.4-2-0.8-4.2-1-6.5-4.3-97.5 23.4-154.2 83.1-170 8 0 14.5 6.5 14.5 14.5 0 4.4-2 8.6-5.5 11.4-16 12.8-24 30.6-24 53.6 0 23.5 13.1 45.5 39.2 65.9 0.8 0.6 1.6 1.3 2.3 1.9 21.4-3.7 43.2-4.5 66.7 0.3 40.8 8.4 74.1 12.3 99.9 11.6 9.9-0.3 18.2 7.6 18.5 17.5 0.2 6.9-3.6 13.3-9.7 16.4-13 6.8-28.2 10.2-45.6 10.2-132.7-23-98.1 42.7-284.1 36.2-46.7-5.7-76.7-17.6-89.8-35.7-4.9-6.7-3.4-16.1 3.4-20.9 3.7-2.7 8.4-3.5 12.7-2.3 22.9 6.3 52.9 6.7 90.1 1.2 5.3-0.8 10.4-1.7 15.5-2.7 0 0 0.8-0.1 2.3-0.5 4-0.4 7.8-1.2 11.5-2.1z" fill="#1E1C1E" p-id="15298"></path><path d="M590 474c0 1.2-7.1-11.2-6.5-10.2l20 35.9c3.2 5.7 10.4 7.7 16.1 4.5 2.9-1.6 5-4.4 5.7-7.6l6-22.6" fill="#FFFFFF" p-id="15299"></path><path d="M590 467c1.8 0 3.4 0.7 4.6 1.7 0 0.1 0.1 0.1 0.1 0.2 0.1 0.2 0.2 0.3 0.3 0.4l-0.1-0.1-0.5-0.5c-0.5-0.4-1-0.8-1.9-1.2-2.3-1-5.3-0.8-7.6 1.5-1.6 1.6-2 3.2-2 4.8 0.1-3.7 3.3-6.8 7.1-6.8z m7 6.7l12.6 22.6c1.3 2.3 4.2 3.1 6.5 1.8 1.2-0.7 2-1.8 2.3-3.1l0.1-0.2 6-22.6c1-3.7 4.8-6 8.6-5 3.7 1 6 4.8 5 8.6l-5.9 22.5c-1.2 5.1-4.5 9.4-9.1 12-9 5.1-20.5 1.9-25.6-7.2l-20-35.9c0-0.1 0-0.1-0.1-0.2l-0.6-1.4 11.3-7.2 0.8 0.8 0.2 0.2c0.3 0.4 0.3 0.4 0.4 0.5l0.1 0.2c0.1 0.1 0.1 0.1 0.2 0.3 0.4 0.7 0.4 0.7 0.6 1.1 0.8 1.3 1.5 2.5 2.2 3.7l0.2 0.4c0.8 1.3 1.4 2.3 1.9 3.1 1.3 1.3 2.2 3 2.3 5z m-14 0.3z" fill="#1E1C1E" p-id="15300"></path><path d="M584 471.7c-2.9-3.6-7-5.7-11-5.7-6.5 0-11.9 3.2-14.9 8.5-0.8 1.4-1.9 2.4-3.3 2.9-5.4 6-12.9 9.6-20.8 9.6-9.7 0-18.4-4.2-24.2-11.3-0.2-0.2-0.4-0.5-0.6-0.8-0.8-1-1.5-2.1-2.2-3.3-2.9-3.6-7-5.7-11-5.7-5.4 0-10.1 2.2-13.2 6-5.3 9.1-14.7 15-24.8 15-9.7 0-18.4-4.2-24.2-11.3-0.2-0.2-0.4-0.5-0.6-0.8-0.8-1-1.5-2.1-2.2-3.3-2.9-3.6-7-5.7-11-5.7-6.5 0-11.9 3.2-14.9 8.5-0.8 1.4-1.9 2.4-3.3 2.9-5.4 6-12.9 9.6-20.8 9.6-11.5 0-21.6-5.9-27.1-15.5-1.9-3.4-0.7-7.6 2.6-9.5 3.4-1.9 7.6-0.7 9.5 2.6 3 5.3 8.4 8.5 14.9 8.5 5 0 10-3.2 12.9-8.4 0.8-1.5 2.1-2.5 3.5-3.1 5.7-6 13.7-9.5 22.6-9.5 10 0 19.5 5.9 24.8 15 3.1 3.8 7.8 6 13.2 6 4 0 8.1-2.1 11-5.7 0.7-1.1 1.4-2.2 2.2-3.3 0.2-0.3 0.4-0.5 0.6-0.8 5.8-7.1 14.4-11.3 24.2-11.3 10 0 19.5 5.9 24.8 15 3.1 3.8 7.8 6 13.2 6 5 0 10-3.2 12.9-8.4 0.8-1.5 2.1-2.5 3.5-3.1 5.7-6 13.7-9.5 22.6-9.5 10 0 19.5 5.9 24.8 15 3.1 3.8 7.8 6 13.2 6 5 0 10-3.2 12.9-8.4 0.8-1.5 2.1-2.5 3.5-3.1 5.7-6 13.7-9.5 22.6-9.5 10.3 0 19.9 6.1 25.1 15.6 1.9 3.4 0.6 7.6-2.7 9.5-3.4 1.9-7.6 0.6-9.5-2.7-2.9-5.2-7.9-8.4-12.9-8.4-6.5 0-11.9 3.2-14.9 8.5-0.8 1.4-1.9 2.4-3.3 2.9-5.4 6-12.9 9.6-20.8 9.6-9.7 0-18.4-4.2-24.2-11.3-0.2-0.2-0.4-0.5-0.6-0.8-0.7-0.8-1.4-1.9-2.1-3z" fill="#1E1C1E" p-id="15301"></path><path d="M769.1 564c0.3 0 27.2-16.8 32 28.6 4.1 44.4-30.4 52.4-79 51-3.6-0.1-12.1 21-44 21-31.8 0-45-59.4-6-59 2.1-0.4-1.4-3.6-2-6-0.8-7.6 1-24.1 16-24 18.6-0.2 13.7 34.5 36 34 23 0.5 47-12.7 47-17M252.4 562c-0.3 0-27.2-16.8-32 28.6-4.1 44.4 30.4 52.4 79 51 3.6-0.1 12.1 21 44 21 31.8 0 45-59.4 6-59-2.1-0.4 1.4-3.6 2-6 0.8-7.6-1-24.1-16-24-18.6-0.2-13.7 34.5-36 34-23 0.5-47-12.7-47-17" fill="#E97712" p-id="15302"></path><path d="M234 512c-0.3 0-48.1 10.6-53 56-4.1 44.4 69.4 47.4 118 46 3.6-0.1 12.1 21 44 21 31.8 0 45-59.4 6-59-2.1-0.4 1.4-3.6 2-6 0.8-7.6-1-24.1-16-24-18.6-0.2-13.7 34.5-36 34-23 0.5-47-12.7-47-17" fill="#FEBB21" p-id="15303"></path><path d="M794 512c0.3 0 48.1 10.6 53 56 4.1 44.4-69.4 47.4-118 46-3.6-0.1-12.1 21-44 21-31.8 0-45-59.4-6-59 2.1-0.4-1.4-3.6-2-6-0.8-7.6 1-24.1 16-24 18.6-0.2 13.7 34.5 36 34 23 0.5 47-12.7 47-17" fill="#F59513" p-id="15304"></path><path d="M839.9 545.2c3.6 6.4 6.1 13.9 7.1 22.8 4.1 44.4-69.4 47.4-118 46-3.6-0.1-12.1 21-44 21-18 0-30-18.9-30.1-35.3 5.3 7.7 13.3 13.3 23.1 13.3 31.9 0 40.4-21.1 44-21 48.6 1.4 122.1-1.6 118-46 0-0.3-0.1-0.5-0.1-0.8z" fill="#F48726" p-id="15305"></path><path d="M184.3 545c-3.6 6.4-6.1 13.9-7.1 22.8-4.1 44.4 69.4 47.4 118 46 3.6-0.1 12.1 21 44 21 18 0 30-18.9 30.1-35.3-5.3 7.7-13.3 13.3-23.1 13.3-31.9 0-40.4-21.1-44-21-48.6 1.4-122.1-1.6-118-46 0-0.3 0-0.5 0.1-0.8z" fill="#FFA102" p-id="15306"></path><path d="M218.5 615c-13.8-3.5-24.7-8.6-32.4-15.7-9-8.3-13.3-19.1-12.1-31.9 2.4-22.2 14-38.7 31.3-50.2 10.6-7 24.5-12.1 28.6-12.1 3.9 0 7 3.1 7 7s-3.1 7-7 7c0.9 0 0.2 0.1 1.1-0.1-0.4 0.1-0.8 0.2-1.3 0.3-1.5 0.4-3.2 1-5 1.6-5.3 1.9-10.6 4.6-15.6 7.9-14.1 9.3-23.2 22.3-25.1 39.9-1.5 16.1 9.9 26.6 34 32.7 19.8 5.1 45.3 6.5 76.9 5.6 2.7-0.1 4.5 1 6.4 2.7 0.8 0.7 1.4 1.3 2.8 2.9 2.8 3.1 4.4 4.6 6.7 6.5 7.1 5.7 16 9 28.2 9 10.9 0 20.5-10.5 22.7-23.8 2.1-13-3.6-21.4-16.6-21.2h-0.7l-0.7-0.1c-5.4-1-7.4-6.1-5.9-10.4 0.3-0.8 0.6-1.5 1.1-2.2 0.2-0.4 0.5-0.8 0.8-1.4 0.1-0.2 0.2-0.4 0.3-0.5 0.2-3.5-0.3-7.5-1.6-10.4-1.5-3.4-3.6-4.9-7.5-4.9-3.5 0-5.4 2.2-9.5 11.1 0 0-0.6 1.4-0.8 1.8-3 6.6-5 10.2-8.2 13.7-4.6 4.9-10.4 7.5-17.6 7.4-11.4 0.2-23.8-2.6-34.9-7.3-11.6-4.9-19.2-10.2-19.1-16.8 0-3.9 3.2-7 7.1-6.9 3 0 5.5 1.9 6.5 4.6 0.4 0.3 0.9 0.7 1.5 1.2 2.3 1.6 5.6 3.4 9.5 5 9.4 4 19.9 6.4 29.3 6.2 5.9 0.1 8.6-2.8 13.2-12.9 0.2-0.4 0.8-1.7 0.8-1.8 2.8-6.1 4.4-9.2 7-12.3 3.9-4.6 8.9-7.1 15.1-7.1 9.7-0.1 16.7 5 20.3 13.3 2.4 5.4 3.2 11.9 2.7 17.7 16.4 3.8 24.3 18.7 21.5 36.5-3.2 19.5-17.9 35.5-36.5 35.5-15.5 0-27.4-4.4-37-12-3-2.4-5-4.4-8.3-8-0.3-0.4-0.6-0.7-0.9-0.9-31.4 0.7-57.2-0.9-78.1-6.2z m125.8-47c0-0.1 0 0 0 0zM809.4 615c13.8-3.5 24.7-8.6 32.4-15.7 9-8.3 13.3-19.1 12.1-31.9-2.4-22.2-14-38.7-31.3-50.2-10.6-7-24.5-12.1-28.6-12.1-3.9 0-7 3.1-7 7s3.1 7 7 7c-0.9 0-0.2 0.1-1.1-0.1 0.4 0.1 0.8 0.2 1.3 0.3 1.5 0.4 3.2 1 5 1.6 5.3 1.9 10.6 4.6 15.6 7.9 14.1 9.3 23.2 22.3 25.1 39.9 1.5 16.1-9.9 26.6-34 32.7-19.8 5.1-45.3 6.5-76.9 5.6-2.7-0.1-4.5 1-6.4 2.7-0.8 0.7-1.4 1.3-2.8 2.9-2.8 3.1-4.4 4.6-6.7 6.5-7.1 5.7-16 9-28.2 9-10.9 0-20.5-10.5-22.7-23.8-2.1-13 3.6-21.4 16.6-21.2h0.7l0.7-0.1c5.4-1 7.4-6.1 5.9-10.4-0.3-0.8-0.6-1.5-1.1-2.2-0.2-0.4-0.5-0.8-0.8-1.4-0.1-0.2-0.2-0.4-0.3-0.5-0.2-3.5 0.3-7.5 1.6-10.4 1.5-3.4 3.6-4.9 7.5-4.9 3.5 0 5.4 2.2 9.5 11.1 0 0 0.6 1.4 0.8 1.8 3 6.6 5 10.2 8.2 13.7 4.6 4.9 10.4 7.5 17.6 7.4 11.4 0.2 23.8-2.6 34.9-7.3 11.6-4.9 19.2-10.2 19.1-16.8 0-3.9-3.2-7-7.1-6.9-3 0-5.5 1.9-6.5 4.6-0.4 0.3-0.9 0.7-1.5 1.2-2.3 1.6-5.6 3.4-9.5 5-9.4 4-19.9 6.4-29.3 6.2-5.9 0.1-8.6-2.8-13.2-12.9-0.2-0.4-0.8-1.7-0.8-1.8-2.8-6.1-4.4-9.2-7-12.3-3.9-4.6-8.9-7.1-15.1-7.1-9.7-0.1-16.7 5-20.3 13.3-2.4 5.4-3.2 11.9-2.7 17.7-16.4 3.8-24.3 18.7-21.5 36.5 3.2 19.5 17.9 35.5 36.5 35.5 15.5 0 27.4-4.4 37-12 3-2.4 5-4.4 8.3-8 0.3-0.4 0.6-0.7 0.9-0.9 31.4 0.7 57.2-0.9 78.1-6.2z m-39.7-54.7z m-86.1 7.7c0-0.1 0 0 0 0z" fill="#1E1C1E" p-id="15307"></path></svg>